<?xml version="1.0" encoding="UTF-8" standalone="no"?>
<!-- Created with Inkscape (http://www.inkscape.org/) -->

<svg
   width="80mm"
   height="103mm"
   viewBox="0 0 80 103"
   version="1.1"
   id="svg5"
   inkscape:version="1.1.2 (0a00cf5339, 2022-02-04)"
   sodipodi:docname="distopia_pfp.svg"
   xmlns:inkscape="http://www.inkscape.org/namespaces/inkscape"
   xmlns:sodipodi="http://sodipodi.sourceforge.net/DTD/sodipodi-0.dtd"
   xmlns:xlink="http://www.w3.org/1999/xlink"
   xmlns="http://www.w3.org/2000/svg"
   xmlns:svg="http://www.w3.org/2000/svg">
  <sodipodi:namedview
     id="namedview7"
     pagecolor="#505050"
     bordercolor="#ffffff"
     borderopacity="1"
     inkscape:pageshadow="0"
     inkscape:pageopacity="0"
     inkscape:pagecheckerboard="1"
     inkscape:document-units="mm"
     showgrid="false"
     inkscape:zoom="1.4142136"
     inkscape:cx="99.702053"
     inkscape:cy="238.64853"
     inkscape:window-width="1511"
     inkscape:window-height="1048"
     inkscape:window-x="183"
     inkscape:window-y="155"
     inkscape:window-maximized="0"
     inkscape:current-layer="layer5"
     width="209mm" />
  <defs
     id="defs2">
    <linearGradient
       inkscape:collect="always"
       id="linearGradient19525">
      <stop
         style="stop-color:#cac5c7;stop-opacity:1;"
         offset="0"
         id="stop19521" />
      <stop
         style="stop-color:#020001;stop-opacity:0"
         offset="1"
         id="stop19523" />
    </linearGradient>
    <linearGradient
       inkscape:collect="always"
       id="linearGradient125434">
      <stop
         style="stop-color:#eee3ec;stop-opacity:1;"
         offset="0"
         id="stop125430" />
      <stop
         style="stop-color:#666666;stop-opacity:1"
         offset="1"
         id="stop125432" />
    </linearGradient>
    <linearGradient
       inkscape:collect="always"
       id="linearGradient125360">
      <stop
         style="stop-color:#eee3ec;stop-opacity:1;"
         offset="0"
         id="stop125356" />
      <stop
         style="stop-color:#666666;stop-opacity:1"
         offset="1"
         id="stop125358" />
    </linearGradient>
    <linearGradient
       inkscape:collect="always"
       xlink:href="#linearGradient125360"
       id="linearGradient125362"
       x1="396.13916"
       y1="420.90683"
       x2="422.5206"
       y2="404.02847"
       gradientUnits="userSpaceOnUse"
       gradientTransform="matrix(0.26458333,0,0,0.26458333,-66.866036,-44.955)" />
    <linearGradient
       inkscape:collect="always"
       xlink:href="#linearGradient125434"
       id="linearGradient125364"
       x1="396.13916"
       y1="420.90683"
       x2="422.5206"
       y2="404.02847"
       gradientUnits="userSpaceOnUse"
       gradientTransform="matrix(0.26458333,0,0,0.26458333,-66.866036,-44.955)" />
    <mask
       maskUnits="userSpaceOnUse"
       id="mask137292">
      <path
         style="display:inline;fill:#f0892a;fill-opacity:1;stroke:none;stroke-width:0;stroke-miterlimit:4;stroke-dasharray:none;stroke-opacity:0.0192549"
         d="m 85.907589,100.89294 c -1.31305,-0.21833 -3.017851,-1.500727 -4.562205,-3.43182 -0.645705,-0.807408 -1.069729,-1.547963 -1.693193,-2.957163 -1.305079,-2.94985 -2.441435,-6.683621 -2.250234,-7.393686 0.103344,-0.383802 0.612045,-0.605348 1.625076,-0.707747 0.240581,-0.02432 1.117923,-0.08191 1.949649,-0.127979 1.633884,-0.0905 2.449848,-0.161878 3.361867,-0.294085 1.301684,-0.18869 2.755567,-0.551664 3.85345,-0.962046 0.557464,-0.208372 1.853361,-0.787712 1.927225,-0.861576 0.02344,-0.02344 -0.150961,-0.385236 -0.447397,-0.928161 -0.649886,-1.19027 -1.60441,-3.109386 -1.955123,-3.930861 -0.512442,-1.200293 -1.387017,-3.159303 -1.881373,-4.214207 -0.594423,-1.268428 -1.952313,-3.972973 -2.512991,-5.005178 -0.227833,-0.419439 -0.401423,-0.756875 -0.385757,-0.749861 0.01566,0.007 0.58122,0.407868 1.256792,0.89078 1.705766,1.219319 3.556518,2.499315 5.54001,3.831514 8.133638,5.462905 14.195605,8.787945 17.580075,9.642821 0.26349,0.06656 0.99461,0.206941 1.6247,0.311965 0.63009,0.105027 2.18605,0.376912 3.45769,0.604195 1.27164,0.227279 2.82233,0.498395 3.44598,0.602477 4.50532,0.751912 7.68496,1.002959 11.32468,0.894136 1.81988,-0.05441 2.05308,-0.0407 2.20736,0.129773 0.36781,0.406431 -1.16481,1.854258 -3.76821,3.559738 -4.75334,3.113889 -11.953,6.498196 -17.19823,8.084288 -2.9223,0.883661 -5.12448,1.266624 -6.9847,1.214649 -0.84255,-0.02355 -1.31842,-0.09052 -1.852566,-0.260762 L 99.252455,98.732885 98.630544,97.78456 c -1.818039,-2.772254 -2.199158,-3.358941 -3.050365,-4.695658 -0.657061,-1.031828 -0.915186,-1.470599 -0.885907,-1.505881 0.02913,-0.0351 0.0081,-0.07595 -0.07144,-0.138486 -0.06202,-0.04878 -0.126232,-0.08351 -0.142695,-0.07716 -0.03489,0.01344 -0.817348,0.907137 -1.578485,1.802873 -1.999695,2.353318 -3.502483,4.356328 -3.95378,5.269857 -0.185555,0.375605 -0.263279,0.744805 -0.17834,0.847146 0.03772,0.04546 -0.04467,0.149738 -0.403799,0.511064 -0.721524,0.725935 -1.081707,0.965925 -1.621327,1.080275 -0.31187,0.0661 -0.505645,0.0694 -0.836819,0.0143 z"
         id="path137294" />
    </mask>
    <mask
       maskUnits="userSpaceOnUse"
       id="mask137296">
      <path
         style="display:inline;fill:#f0892a;fill-opacity:1;stroke:none;stroke-width:0;stroke-miterlimit:4;stroke-dasharray:none;stroke-opacity:0.0192549"
         d="m 85.907589,100.89294 c -1.31305,-0.21833 -3.017851,-1.500727 -4.562205,-3.43182 -0.645705,-0.807408 -1.069729,-1.547963 -1.693193,-2.957163 -1.305079,-2.94985 -2.441435,-6.683621 -2.250234,-7.393686 0.103344,-0.383802 0.612045,-0.605348 1.625076,-0.707747 0.240581,-0.02432 1.117923,-0.08191 1.949649,-0.127979 1.633884,-0.0905 2.449848,-0.161878 3.361867,-0.294085 1.301684,-0.18869 2.755567,-0.551664 3.85345,-0.962046 0.557464,-0.208372 1.853361,-0.787712 1.927225,-0.861576 0.02344,-0.02344 -0.150961,-0.385236 -0.447397,-0.928161 -0.649886,-1.19027 -1.60441,-3.109386 -1.955123,-3.930861 -0.512442,-1.200293 -1.387017,-3.159303 -1.881373,-4.214207 -0.594423,-1.268428 -1.952313,-3.972973 -2.512991,-5.005178 -0.227833,-0.419439 -0.401423,-0.756875 -0.385757,-0.749861 0.01566,0.007 0.58122,0.407868 1.256792,0.89078 1.705766,1.219319 3.556518,2.499315 5.54001,3.831514 8.133638,5.462905 14.195605,8.787945 17.580075,9.642821 0.26349,0.06656 0.99461,0.206941 1.6247,0.311965 0.63009,0.105027 2.18605,0.376912 3.45769,0.604195 1.27164,0.227279 2.82233,0.498395 3.44598,0.602477 4.50532,0.751912 7.68496,1.002959 11.32468,0.894136 1.81988,-0.05441 2.05308,-0.0407 2.20736,0.129773 0.36781,0.406431 -1.16481,1.854258 -3.76821,3.559738 -4.75334,3.113889 -11.953,6.498196 -17.19823,8.084288 -2.9223,0.883661 -5.12448,1.266624 -6.9847,1.214649 -0.84255,-0.02355 -1.31842,-0.09052 -1.852566,-0.260762 L 99.252455,98.732885 98.630544,97.78456 c -1.818039,-2.772254 -2.199158,-3.358941 -3.050365,-4.695658 -0.657061,-1.031828 -0.915186,-1.470599 -0.885907,-1.505881 0.02913,-0.0351 0.0081,-0.07595 -0.07144,-0.138486 -0.06202,-0.04878 -0.126232,-0.08351 -0.142695,-0.07716 -0.03489,0.01344 -0.817348,0.907137 -1.578485,1.802873 -1.999695,2.353318 -3.502483,4.356328 -3.95378,5.269857 -0.185555,0.375605 -0.263279,0.744805 -0.17834,0.847146 0.03772,0.04546 -0.04467,0.149738 -0.403799,0.511064 -0.721524,0.725935 -1.081707,0.965925 -1.621327,1.080275 -0.31187,0.0661 -0.505645,0.0694 -0.836819,0.0143 z"
         id="path137298" />
    </mask>
    <mask
       maskUnits="userSpaceOnUse"
       id="mask137300">
      <path
         style="display:inline;fill:#f0892a;fill-opacity:1;stroke:none;stroke-width:0;stroke-miterlimit:4;stroke-dasharray:none;stroke-opacity:0.0192549"
         d="m 85.907589,100.89294 c -1.31305,-0.21833 -3.017851,-1.500727 -4.562205,-3.43182 -0.645705,-0.807408 -1.069729,-1.547963 -1.693193,-2.957163 -1.305079,-2.94985 -2.441435,-6.683621 -2.250234,-7.393686 0.103344,-0.383802 0.612045,-0.605348 1.625076,-0.707747 0.240581,-0.02432 1.117923,-0.08191 1.949649,-0.127979 1.633884,-0.0905 2.449848,-0.161878 3.361867,-0.294085 1.301684,-0.18869 2.755567,-0.551664 3.85345,-0.962046 0.557464,-0.208372 1.853361,-0.787712 1.927225,-0.861576 0.02344,-0.02344 -0.150961,-0.385236 -0.447397,-0.928161 -0.649886,-1.19027 -1.60441,-3.109386 -1.955123,-3.930861 -0.512442,-1.200293 -1.387017,-3.159303 -1.881373,-4.214207 -0.594423,-1.268428 -1.952313,-3.972973 -2.512991,-5.005178 -0.227833,-0.419439 -0.401423,-0.756875 -0.385757,-0.749861 0.01566,0.007 0.58122,0.407868 1.256792,0.89078 1.705766,1.219319 3.556518,2.499315 5.54001,3.831514 8.133638,5.462905 14.195605,8.787945 17.580075,9.642821 0.26349,0.06656 0.99461,0.206941 1.6247,0.311965 0.63009,0.105027 2.18605,0.376912 3.45769,0.604195 1.27164,0.227279 2.82233,0.498395 3.44598,0.602477 4.50532,0.751912 7.68496,1.002959 11.32468,0.894136 1.81988,-0.05441 2.05308,-0.0407 2.20736,0.129773 0.36781,0.406431 -1.16481,1.854258 -3.76821,3.559738 -4.75334,3.113889 -11.953,6.498196 -17.19823,8.084288 -2.9223,0.883661 -5.12448,1.266624 -6.9847,1.214649 -0.84255,-0.02355 -1.31842,-0.09052 -1.852566,-0.260762 L 99.252455,98.732885 98.630544,97.78456 c -1.818039,-2.772254 -2.199158,-3.358941 -3.050365,-4.695658 -0.657061,-1.031828 -0.915186,-1.470599 -0.885907,-1.505881 0.02913,-0.0351 0.0081,-0.07595 -0.07144,-0.138486 -0.06202,-0.04878 -0.126232,-0.08351 -0.142695,-0.07716 -0.03489,0.01344 -0.817348,0.907137 -1.578485,1.802873 -1.999695,2.353318 -3.502483,4.356328 -3.95378,5.269857 -0.185555,0.375605 -0.263279,0.744805 -0.17834,0.847146 0.03772,0.04546 -0.04467,0.149738 -0.403799,0.511064 -0.721524,0.725935 -1.081707,0.965925 -1.621327,1.080275 -0.31187,0.0661 -0.505645,0.0694 -0.836819,0.0143 z"
         id="path137302" />
    </mask>
    <mask
       maskUnits="userSpaceOnUse"
       id="mask137304">
      <path
         style="display:inline;fill:#f0892a;fill-opacity:1;stroke:none;stroke-width:0;stroke-miterlimit:4;stroke-dasharray:none;stroke-opacity:0.0192549"
         d="m 85.907589,100.89294 c -1.31305,-0.21833 -3.017851,-1.500727 -4.562205,-3.43182 -0.645705,-0.807408 -1.069729,-1.547963 -1.693193,-2.957163 -1.305079,-2.94985 -2.441435,-6.683621 -2.250234,-7.393686 0.103344,-0.383802 0.612045,-0.605348 1.625076,-0.707747 0.240581,-0.02432 1.117923,-0.08191 1.949649,-0.127979 1.633884,-0.0905 2.449848,-0.161878 3.361867,-0.294085 1.301684,-0.18869 2.755567,-0.551664 3.85345,-0.962046 0.557464,-0.208372 1.853361,-0.787712 1.927225,-0.861576 0.02344,-0.02344 -0.150961,-0.385236 -0.447397,-0.928161 -0.649886,-1.19027 -1.60441,-3.109386 -1.955123,-3.930861 -0.512442,-1.200293 -1.387017,-3.159303 -1.881373,-4.214207 -0.594423,-1.268428 -1.952313,-3.972973 -2.512991,-5.005178 -0.227833,-0.419439 -0.401423,-0.756875 -0.385757,-0.749861 0.01566,0.007 0.58122,0.407868 1.256792,0.89078 1.705766,1.219319 3.556518,2.499315 5.54001,3.831514 8.133638,5.462905 14.195605,8.787945 17.580075,9.642821 0.26349,0.06656 0.99461,0.206941 1.6247,0.311965 0.63009,0.105027 2.18605,0.376912 3.45769,0.604195 1.27164,0.227279 2.82233,0.498395 3.44598,0.602477 4.50532,0.751912 7.68496,1.002959 11.32468,0.894136 1.81988,-0.05441 2.05308,-0.0407 2.20736,0.129773 0.36781,0.406431 -1.16481,1.854258 -3.76821,3.559738 -4.75334,3.113889 -11.953,6.498196 -17.19823,8.084288 -2.9223,0.883661 -5.12448,1.266624 -6.9847,1.214649 -0.84255,-0.02355 -1.31842,-0.09052 -1.852566,-0.260762 L 99.252455,98.732885 98.630544,97.78456 c -1.818039,-2.772254 -2.199158,-3.358941 -3.050365,-4.695658 -0.657061,-1.031828 -0.915186,-1.470599 -0.885907,-1.505881 0.02913,-0.0351 0.0081,-0.07595 -0.07144,-0.138486 -0.06202,-0.04878 -0.126232,-0.08351 -0.142695,-0.07716 -0.03489,0.01344 -0.817348,0.907137 -1.578485,1.802873 -1.999695,2.353318 -3.502483,4.356328 -3.95378,5.269857 -0.185555,0.375605 -0.263279,0.744805 -0.17834,0.847146 0.03772,0.04546 -0.04467,0.149738 -0.403799,0.511064 -0.721524,0.725935 -1.081707,0.965925 -1.621327,1.080275 -0.31187,0.0661 -0.505645,0.0694 -0.836819,0.0143 z"
         id="path137306" />
    </mask>
    <mask
       maskUnits="userSpaceOnUse"
       id="mask137308">
      <path
         style="display:inline;fill:#f0892a;fill-opacity:1;stroke:none;stroke-width:0;stroke-miterlimit:4;stroke-dasharray:none;stroke-opacity:0.0192549"
         d="m 85.907589,100.89294 c -1.31305,-0.21833 -3.017851,-1.500727 -4.562205,-3.43182 -0.645705,-0.807408 -1.069729,-1.547963 -1.693193,-2.957163 -1.305079,-2.94985 -2.441435,-6.683621 -2.250234,-7.393686 0.103344,-0.383802 0.612045,-0.605348 1.625076,-0.707747 0.240581,-0.02432 1.117923,-0.08191 1.949649,-0.127979 1.633884,-0.0905 2.449848,-0.161878 3.361867,-0.294085 1.301684,-0.18869 2.755567,-0.551664 3.85345,-0.962046 0.557464,-0.208372 1.853361,-0.787712 1.927225,-0.861576 0.02344,-0.02344 -0.150961,-0.385236 -0.447397,-0.928161 -0.649886,-1.19027 -1.60441,-3.109386 -1.955123,-3.930861 -0.512442,-1.200293 -1.387017,-3.159303 -1.881373,-4.214207 -0.594423,-1.268428 -1.952313,-3.972973 -2.512991,-5.005178 -0.227833,-0.419439 -0.401423,-0.756875 -0.385757,-0.749861 0.01566,0.007 0.58122,0.407868 1.256792,0.89078 1.705766,1.219319 3.556518,2.499315 5.54001,3.831514 8.133638,5.462905 14.195605,8.787945 17.580075,9.642821 0.26349,0.06656 0.99461,0.206941 1.6247,0.311965 0.63009,0.105027 2.18605,0.376912 3.45769,0.604195 1.27164,0.227279 2.82233,0.498395 3.44598,0.602477 4.50532,0.751912 7.68496,1.002959 11.32468,0.894136 1.81988,-0.05441 2.05308,-0.0407 2.20736,0.129773 0.36781,0.406431 -1.16481,1.854258 -3.76821,3.559738 -4.75334,3.113889 -11.953,6.498196 -17.19823,8.084288 -2.9223,0.883661 -5.12448,1.266624 -6.9847,1.214649 -0.84255,-0.02355 -1.31842,-0.09052 -1.852566,-0.260762 L 99.252455,98.732885 98.630544,97.78456 c -1.818039,-2.772254 -2.199158,-3.358941 -3.050365,-4.695658 -0.657061,-1.031828 -0.915186,-1.470599 -0.885907,-1.505881 0.02913,-0.0351 0.0081,-0.07595 -0.07144,-0.138486 -0.06202,-0.04878 -0.126232,-0.08351 -0.142695,-0.07716 -0.03489,0.01344 -0.817348,0.907137 -1.578485,1.802873 -1.999695,2.353318 -3.502483,4.356328 -3.95378,5.269857 -0.185555,0.375605 -0.263279,0.744805 -0.17834,0.847146 0.03772,0.04546 -0.04467,0.149738 -0.403799,0.511064 -0.721524,0.725935 -1.081707,0.965925 -1.621327,1.080275 -0.31187,0.0661 -0.505645,0.0694 -0.836819,0.0143 z"
         id="path137310" />
    </mask>
    <mask
       maskUnits="userSpaceOnUse"
       id="mask137312">
      <path
         style="display:inline;fill:#f0892a;fill-opacity:1;stroke:none;stroke-width:0;stroke-miterlimit:4;stroke-dasharray:none;stroke-opacity:0.0192549"
         d="m 85.907589,100.89294 c -1.31305,-0.21833 -3.017851,-1.500727 -4.562205,-3.43182 -0.645705,-0.807408 -1.069729,-1.547963 -1.693193,-2.957163 -1.305079,-2.94985 -2.441435,-6.683621 -2.250234,-7.393686 0.103344,-0.383802 0.612045,-0.605348 1.625076,-0.707747 0.240581,-0.02432 1.117923,-0.08191 1.949649,-0.127979 1.633884,-0.0905 2.449848,-0.161878 3.361867,-0.294085 1.301684,-0.18869 2.755567,-0.551664 3.85345,-0.962046 0.557464,-0.208372 1.853361,-0.787712 1.927225,-0.861576 0.02344,-0.02344 -0.150961,-0.385236 -0.447397,-0.928161 -0.649886,-1.19027 -1.60441,-3.109386 -1.955123,-3.930861 -0.512442,-1.200293 -1.387017,-3.159303 -1.881373,-4.214207 -0.594423,-1.268428 -1.952313,-3.972973 -2.512991,-5.005178 -0.227833,-0.419439 -0.401423,-0.756875 -0.385757,-0.749861 0.01566,0.007 0.58122,0.407868 1.256792,0.89078 1.705766,1.219319 3.556518,2.499315 5.54001,3.831514 8.133638,5.462905 14.195605,8.787945 17.580075,9.642821 0.26349,0.06656 0.99461,0.206941 1.6247,0.311965 0.63009,0.105027 2.18605,0.376912 3.45769,0.604195 1.27164,0.227279 2.82233,0.498395 3.44598,0.602477 4.50532,0.751912 7.68496,1.002959 11.32468,0.894136 1.81988,-0.05441 2.05308,-0.0407 2.20736,0.129773 0.36781,0.406431 -1.16481,1.854258 -3.76821,3.559738 -4.75334,3.113889 -11.953,6.498196 -17.19823,8.084288 -2.9223,0.883661 -5.12448,1.266624 -6.9847,1.214649 -0.84255,-0.02355 -1.31842,-0.09052 -1.852566,-0.260762 L 99.252455,98.732885 98.630544,97.78456 c -1.818039,-2.772254 -2.199158,-3.358941 -3.050365,-4.695658 -0.657061,-1.031828 -0.915186,-1.470599 -0.885907,-1.505881 0.02913,-0.0351 0.0081,-0.07595 -0.07144,-0.138486 -0.06202,-0.04878 -0.126232,-0.08351 -0.142695,-0.07716 -0.03489,0.01344 -0.817348,0.907137 -1.578485,1.802873 -1.999695,2.353318 -3.502483,4.356328 -3.95378,5.269857 -0.185555,0.375605 -0.263279,0.744805 -0.17834,0.847146 0.03772,0.04546 -0.04467,0.149738 -0.403799,0.511064 -0.721524,0.725935 -1.081707,0.965925 -1.621327,1.080275 -0.31187,0.0661 -0.505645,0.0694 -0.836819,0.0143 z"
         id="path137314" />
    </mask>
    <linearGradient
       inkscape:collect="always"
       xlink:href="#linearGradient19525"
       id="linearGradient19527"
       x1="36.825745"
       y1="268.67715"
       x2="165.70172"
       y2="348.10413"
       gradientUnits="userSpaceOnUse" />
  </defs>
  <g
     inkscape:groupmode="layer"
     id="layer5"
     inkscape:label="collar bottom"
     style="display:inline">
    <path
       style="display:inline;fill:none;stroke:none;stroke-width:0.264583px;stroke-linecap:butt;stroke-linejoin:miter;stroke-opacity:1"
       d="m 14.389142,59.8729 -9.3939115,2.01064 c 0,0 8.9902345,9.31795 13.0937045,16.28142 4.103471,6.96347 11.348543,17.78856 11.348543,17.78856 l 17.346366,4.25819 -0.77095,-13.92138 c 0,0 -5.40292,-0.47253 -9.75508,0.0995 -4.352173,0.57201 -2.18852,0.14922 -2.18852,0.14922 l -0.84154,-2.2903 z"
       id="path4987" />
    <path
       style="display:inline;fill:none;stroke:none;stroke-width:0.264583px;stroke-linecap:butt;stroke-linejoin:miter;stroke-opacity:1"
       d="m 62.226794,44.944465 11.06996,-3.645448 1.03461,10.406047 -6.72991,7.977396 -4.70164,2.20335 0.85213,-2.52209 -1.37327,-14.32827"
       id="path52416" />
    <path
       style="fill:#000001;fill-opacity:1;stroke:#000000;stroke-width:0;stroke-miterlimit:4;stroke-dasharray:none;stroke-opacity:0.00827798"
       d="m 63.533263,60.481446 0.376251,-1.111517 -0.690856,-7.182442 c -0.379971,-3.950346 -0.687216,-7.184078 -0.682766,-7.186076 0.16387,-0.07349 10.666482,-3.484335 10.681584,-3.469232 0.01857,0.01857 0.899028,9.438526 0.934871,9.959374 l 0.01164,0.169267 -3.317201,3.939336 -3.317197,3.939339 -2.154013,1.014408 c -1.184709,0.557924 -2.168538,1.019955 -2.186294,1.026734 -0.01775,0.0068 0.137033,-0.487855 0.343971,-1.099191 z"
       id="path53128"
       sodipodi:nodetypes="ccscsscccsssc" />
    <path
       style="fill:none;stroke:none;stroke-width:0.264583px;stroke-linecap:butt;stroke-linejoin:miter;stroke-opacity:1"
       d="m 62.076114,64.47253 0.71265,-1.49515 c 3.4653,-0.0558 6.89878,-2.09811 10.28194,-3.15357 -3.40422,2.18833 -6.61783,4.06721 -10.99459,4.64872 z"
       id="path59026"
       sodipodi:nodetypes="cccc" />
    <path
       style="fill:#1a0000;fill-opacity:1;stroke:none;stroke-width:0;stroke-miterlimit:4;stroke-dasharray:none;stroke-opacity:0.0192549"
       d="M 37.603808,97.732144 C 33.197332,96.631588 29.577768,95.724192 29.560332,95.715709 29.375357,95.625698 21.558695,83.412635 19.173627,79.487105 16.126595,74.47206 13.893599,71.510785 8.8016536,65.732359 L 5.5093057,61.996152 9.6240422,61.127794 c 2.2631048,-0.477594 4.2458188,-0.886941 4.4060348,-0.909656 0.188698,-0.02675 3.576079,4.208137 9.617318,12.02354 9.371454,12.123616 10.416921,13.630047 9.86768,14.218552 -0.408503,0.437708 0.0061,0.476464 2.285299,0.213611 2.799487,-0.322855 6.591975,-0.427527 8.551577,-0.236021 l 1.463627,0.143039 0.337886,6.023552 c 0.412724,7.357672 0.414848,7.235652 -0.124928,7.175082 -0.227126,-0.0255 -4.018254,-0.946793 -8.424728,-2.047349 z"
       id="path59628" />
    <path
       style="fill:#1a0000;fill-opacity:1;stroke:none;stroke-width:0;stroke-miterlimit:4;stroke-dasharray:none;stroke-opacity:0.0192549"
       d="m 62.35623,64.234873 c 0.0479,-0.105958 0.517456,-1.093626 0.523168,-1.100442 0.0034,-0.0041 0.175422,-0.01831 0.382228,-0.03162 1.214398,-0.07817 2.606397,-0.406762 4.245779,-1.00226 0.572437,-0.207936 0.955696,-0.357679 2.508242,-0.980003 1.443059,-0.578435 1.729878,-0.687705 1.748931,-0.666298 0.01431,0.01609 -0.452594,0.303734 -1.272786,0.784077 -2.641521,1.547006 -5.015836,2.482114 -7.425259,2.924397 -0.677278,0.124323 -0.736616,0.13035 -0.710303,0.07214 z"
       id="path59667" />
    <path
       style="fill:#efdee4;fill-opacity:1;stroke:none;stroke-width:0.264583px;stroke-linecap:butt;stroke-linejoin:miter;stroke-opacity:1"
       d="m 32.554918,83.9432 13.220996,-4.79332 1.40921,7.65743 -1.36911,-0.22645 c 0,0 -4.27685,-0.53238 -9.35343,0.0232 -5.076579,0.5556 -2.79498,0.20626 -2.8328,-0.35539 -0.0378,-0.56165 -1.074427,-2.3055 -1.074427,-2.3055 z"
       id="path59990"
       sodipodi:nodetypes="ccccsscc" />
    <path
       style="fill:url(#linearGradient19527);fill-opacity:1;stroke-width:0.467693"
       d="m 125.51145,328.16402 c 0,-0.0607 0.36663,-0.43302 0.81474,-0.82746 0.79849,-0.70286 0.81322,-0.73502 0.73869,-1.61327 -0.091,-1.07276 -1.10923,-3.45339 -2.68931,-6.28781 -0.62331,-1.11811 -1.08013,-2.07997 -1.01517,-2.13745 0.12491,-0.11054 48.90745,-17.7848 49.33488,-17.87439 0.19686,-0.0413 0.80396,2.95264 2.87217,14.16393 1.4424,7.81894 2.58799,14.2508 2.54577,14.29303 -0.0422,0.0422 -1.29493,-0.12694 -2.78378,-0.37592 -4.99961,-0.83609 -9.19736,-1.07288 -19.14723,-1.08003 -9.40822,-0.007 -11.22671,0.0783 -19.0035,0.8887 -9.08965,0.94725 -11.66726,1.13518 -11.66726,0.85067 z"
       id="path15695"
       transform="scale(0.26458333)" />
  </g>
  <g
     inkscape:groupmode="layer"
     id="layer2"
     inkscape:label="face"
     style="display:inline">
    <path
       style="fill:#efdee4;fill-opacity:1;stroke:#efdee4;stroke-width:0.264583px;stroke-linecap:butt;stroke-linejoin:miter;stroke-opacity:1"
       d="m 32.307956,84.29636 c 0,0 -4.663295,-1.06418 -7.809505,-4.72522 -3.146211,-3.66104 -8.237368,-10.75432 -9.495846,-16.3031 -1.258474,-5.54877 0.114406,-18.591243 -1.372893,-22.995937 -1.4873,-4.404696 2.264656,-16.837958 9.929973,-20.212986 7.665321,-3.375028 19.620909,-4.347501 23.853999,-1.830528 4.23309,2.516974 16.53203,8.331486 17.6761,21.202351 1.14408,12.870865 -0.28603,18.30523 -3.83266,27.00021 -3.54664,8.69499 -25.05528,17.44717 -25.05528,17.44717 z"
       id="path902" />
    <path
       style="fill:#efdee4;fill-opacity:1;stroke:#efdee4;stroke-width:0.264583px;stroke-linecap:butt;stroke-linejoin:miter;stroke-opacity:1"
       d="m 62.226794,44.944465 2.4987,-3.041459 5.4411,-0.04764 1.40898,1.268084 c 0,0 2.0665,6.857032 1.36201,7.772869 -0.70449,0.915834 -7.68528,10.837711 -8.7655,9.569631 -1.08022,-1.26809 -1.94529,-15.521489 -1.94529,-15.521489 z"
       id="path1247" />
    <path
       style="fill:#efdee4;fill-opacity:1;stroke:#efdee4;stroke-width:0.264583px;stroke-linecap:butt;stroke-linejoin:miter;stroke-opacity:1"
       d="m 14.403665,56.18069 c 0,0 -5.0237388,-5.653032 -3.118233,-9.909482 1.905505,-4.256448 3.053858,-1.306759 3.053858,-1.306759 z"
       id="path1362" />
    <path
       style="fill:#efdee4;fill-opacity:1;stroke:#efdee4;stroke-width:0;stroke-miterlimit:4;stroke-dasharray:none;stroke-opacity:1"
       d="m 64.257597,60.249534 c -0.293039,-0.46664 -0.308475,-0.717182 -0.09169,-1.488207 0.730904,-2.599587 1.187699,-5.381117 1.388798,-8.456719 0.09297,-1.421876 0.05465,-6.692746 -0.05638,-7.755688 l -0.0463,-0.44323 2.306122,-0.05803 2.306122,-0.05803 0.678791,0.621583 c 0.768889,0.704088 0.678495,0.505013 1.285772,2.831595 0.520834,1.995411 0.791424,3.386087 0.845994,4.347948 l 0.04485,0.790535 -0.299382,0.434796 c -0.607716,0.882594 -3.174923,4.266189 -4.120351,5.430646 -1.931574,2.37907 -3.283024,3.722341 -3.9547,3.930767 -0.130464,0.04048 -0.201779,0.0088 -0.287642,-0.127971 z"
       id="path29406" />
    <path
       style="fill:#efdee4;fill-opacity:1;stroke:#efdee4;stroke-width:0;stroke-miterlimit:4;stroke-dasharray:none;stroke-opacity:1"
       d="M 63.582529,57.439198 C 63.229961,55.074541 62.856673,51.373827 62.587764,47.57726 62.520014,46.620712 62.445252,45.657488 62.42163,45.436765 l -0.04295,-0.401315 1.197655,-1.456447 c 0.828741,-1.007813 1.253479,-1.463894 1.378884,-1.480634 0.179895,-0.02403 0.181723,-0.01503 0.249047,1.22533 0.09687,1.784657 0.07363,6.513293 -0.03819,7.771447 -0.136263,1.533179 -0.312692,2.887369 -0.535575,4.110787 -0.236439,1.297855 -0.742603,3.399305 -0.818771,3.399305 -0.03044,0 -0.133578,-0.524716 -0.229198,-1.16604 z"
       id="path29445" />
    <path
       style="fill:#efdee4;fill-opacity:1;stroke:#efdee4;stroke-width:0;stroke-miterlimit:4;stroke-dasharray:none;stroke-opacity:1"
       d="M 31.350133,83.814746 C 30.074592,83.388211 28.533646,82.623655 27.355377,81.832707 25.754698,80.758208 24.276011,79.192764 22.088952,76.257294 18.373207,71.270027 15.794011,66.344367 15.122594,62.953189 14.712471,60.88175 14.639611,59.41684 14.558362,51.608994 c -0.03891,-3.739235 -0.107481,-7.207713 -0.152379,-7.707728 -0.132013,-1.470149 -0.325022,-2.671421 -0.569137,-3.542295 -0.283218,-1.010356 -0.404437,-2.116105 -0.339645,-3.09821 0.390869,-5.924859 3.707976,-12.561913 7.821075,-15.648844 0.971502,-0.729126 1.782786,-1.179944 3.043563,-1.691256 4.948925,-2.007063 11.55397,-3.142732 16.823536,-2.892629 2.237547,0.106196 3.926713,0.400481 5.182553,0.902896 0.863515,0.345458 4.885459,2.680218 6.650847,3.86085 6.697093,4.478787 10.564804,9.753261 11.662058,15.903778 0.150045,0.841063 0.392644,3.169473 0.393297,3.774811 2.65e-4,0.275317 -0.01622,0.296452 -0.231748,0.296452 -0.20547,0 -0.378709,0.178126 -1.511311,1.553943 l -1.279239,1.553946 0.0925,1.3908 c 0.300929,4.525058 0.795853,9.402115 1.198017,11.805473 l 0.246494,1.473076 -0.453612,1.368589 c -0.66657,2.011087 -1.802683,4.958286 -2.295083,5.953696 -0.602597,1.218171 -1.319869,2.183673 -2.60359,3.504615 -2.197963,2.261696 -4.992391,4.364877 -8.972825,6.753252 -3.013062,1.807924 -7.485817,4.108667 -11.186086,5.754015 l -1.818235,0.80849 -1.6206,0.180912 c -0.891328,0.0995 -1.78426,0.199085 -1.98429,0.221297 -0.286382,0.0318 -0.563658,-0.02648 -1.304385,-0.274177 z"
       id="path29484" />
    <path
       style="fill:#efdee4;fill-opacity:1;stroke:#000000;stroke-width:0;stroke-miterlimit:4;stroke-dasharray:none"
       d="m 13.812938,55.149148 c -2.180415,-2.94739 -3.142022,-5.862812 -2.640875,-8.006683 0.122709,-0.524936 0.798939,-1.88817 1.16862,-2.35585 0.525394,-0.664673 0.924534,-0.795518 1.345692,-0.441138 0.471808,0.397 0.452236,0.169141 0.513535,5.978896 0.03108,2.945736 0.04459,5.355156 0.03003,5.354267 -0.01458,-7.94e-4 -0.202216,-0.23916 -0.416997,-0.529492 z"
       id="path29523" />
  </g>
  <g
     inkscape:label="hair"
     inkscape:groupmode="layer"
     id="layer1"
     style="display:inline">
    <path
       style="fill:none;stroke:none;stroke-width:0.264583px;stroke-linecap:butt;stroke-linejoin:miter;stroke-opacity:0.0192549"
       d="M 10.347402,49.78512 8.9291405,47.301749 6.9847755,48.206349 7.9309625,45.50295 0.75109148,45.319067 8.7223585,34.787024 0.38684248,39.146608 15.88089,22.140282 c 0,0 8.128831,-7.534267 13.669713,-8.716119 1.844763,-0.393482 2.31317,-0.348789 2.31317,-0.348789 0,0 -2.023604,-5.925032 -0.175905,-8.918464 1.847696,-2.993432 2.516136,-3.9961 2.516136,-3.9961 0,0 -1.106174,5.61811 1.34982,9.583351 2.456,3.965242 6.94514,6.601315 13.57682,8.114112 6.63168,1.512795 13.16651,5.793645 15.46483,7.259815 2.29831,1.466167 14.95527,12.709093 14.95527,12.709093 l -6.70057,-2.287455 1.48119,16.165338 -2.75579,-8.581614 -1.40898,-1.268084 -5.4411,0.04764 -2.4987,3.041454 v 0 5e-6 l -1.18463,-0.913947 -4.92952,13.150462 2.29331,-12.601021 c 0,0 -1.42023,-13.641763 -1.77492,-13.641763 -0.35469,0 -2.77638,3.64476 -2.77638,3.64476 l -0.52595,-3.784111 -4.22566,0.93711 c 0,0 1.71653,-1.530115 1.36184,-2.080499 -0.3547,-0.550383 -8.43922,3.877146 -8.43922,3.877146 0,0 2.79525,-6.092555 2.94521,-6.092555 0.14997,0 -4.93664,1.180023 -6.74219,2.763629 -1.80555,1.583602 -2.24344,1.259684 -2.24344,1.259684 l 0.77981,-1.103723 c 0,0 -5.198847,1.708674 -6.206595,3.184303 -1.007747,1.475631 -7.52457,0.837956 -7.52457,0.837956 l -5.866233,4.559173 0.886034,-3.099244 -4.402475,4.076411 0.373154,4.345348 c -0.983046,-1.185114 -2.259363,-0.177799 -3.218051,2.84662 -0.347617,1.038691 0.346012,3.672751 0.346012,3.672751 z"
       id="path1592"
       sodipodi:nodetypes="ccccccccscscsssccccccccccccscccscssccscccccccc" />
    <path
       style="fill:#000001;fill-opacity:1;stroke:none;stroke-width:0;stroke-miterlimit:4;stroke-dasharray:none;stroke-opacity:0"
       d="m 56.777586,54.698972 c -0.0026,-0.08144 0.391885,-2.327534 0.876456,-4.991303 0.484571,-2.663772 0.881038,-5.025649 0.881038,-5.248619 0,-0.505235 -0.683569,-6.653517 -1.079034,-9.705247 -0.294868,-2.275454 -0.524521,-3.664321 -0.635632,-3.844102 -0.108392,-0.175382 -0.399812,-0.09811 -0.655498,0.173796 -0.229288,0.243838 -1.665581,2.185422 -2.042334,2.760832 -0.146804,0.224213 -0.164936,0.156512 -0.380767,-1.421781 -0.124643,-0.911463 -0.25975,-1.694278 -0.300236,-1.73959 -0.05825,-0.06519 -2.012236,0.318601 -3.519292,0.691232 -0.220729,0.05458 -0.205047,0.01704 0.171614,-0.410882 0.712459,-0.809395 0.77465,-1.520865 0.132749,-1.518621 -0.432051,0.0016 -2.179634,0.773604 -5.029512,2.222076 -1.494094,0.759384 -2.716535,1.366983 -2.716535,1.350222 0,-0.05625 1.726861,-3.709408 2.207824,-4.670634 0.261604,-0.52283 0.443753,-0.982488 0.404775,-1.021466 -0.09685,-0.09685 -0.809223,0.0899 -2.680954,0.702844 -1.973474,0.646261 -3.40954,1.332098 -4.347858,2.076453 -0.840092,0.666432 -1.467149,1.101683 -1.587175,1.101683 -0.04639,0 0.07396,-0.220361 0.267457,-0.489691 0.193495,-0.269333 0.351808,-0.531741 0.351808,-0.583134 0,-0.170857 -2.856298,0.92629 -4.333192,1.664449 -1.165257,0.582398 -1.647285,0.907912 -2.287452,1.544722 -0.355301,0.353438 -0.633876,0.531352 -1.004163,0.641315 -0.929923,0.276157 -2.489576,0.384578 -4.585838,0.318789 l -1.980811,-0.06217 -2.651336,2.065576 c -1.458235,1.136065 -2.664754,2.050235 -2.681155,2.031484 -0.0164,-0.01876 0.141282,-0.628793 0.350403,-1.355648 0.209119,-0.726856 0.368718,-1.380112 0.354666,-1.451679 -0.03532,-0.179872 -4.716012,4.173934 -4.758626,4.426297 -0.03106,0.183972 0.104849,2.004668 0.242808,3.252623 l 0.05533,0.500491 -0.492805,-0.04735 c -0.821412,-0.07893 -1.337159,0.358145 -2.012164,1.705218 -0.652934,1.303036 -0.773237,1.812658 -0.712658,3.018954 0.02974,0.592251 0.08569,1.182828 0.124328,1.312392 0.147746,0.495395 -0.165182,0.07079 -0.8988298,-1.219605 -0.412792,-0.726054 -0.7780387,-1.3364 -0.8116566,-1.356323 -0.033618,-0.01992 -0.4289372,0.134228 -0.8784908,0.342561 -0.4495509,0.20833 -0.798359,0.32457 -0.7751259,0.258308 C 7.8942228,46.1989 8.1504902,45.398141 8.1151551,45.362896 8.0909458,45.338766 6.573399,45.287759 4.7427972,45.249553 2.9121954,45.211345 1.3625176,45.15256 1.2990652,45.118915 1.22658,45.080479 2.616505,43.165806 5.0387998,39.967301 8.2139347,35.774711 8.8714004,34.854151 8.7663529,34.74813 8.6611493,34.64195 8.0096525,34.948335 5.0465309,36.497486 3.070776,37.530433 1.4412708,38.359266 1.4254064,38.339343 1.3611021,38.25859 15.999024,22.293224 16.75298,21.621783 c 3.953656,-3.520958 8.610471,-6.596792 11.552717,-7.630591 0.963348,-0.338484 2.704885,-0.699773 3.373157,-0.699773 0.3849,0 0.436896,-0.02347 0.379407,-0.171312 -0.19454,-0.500269 -0.649087,-2.484821 -0.791406,-3.45527 -0.219477,-1.4966134 -0.158398,-3.4989854 0.134242,-4.4006563 0.16443,-0.5066374 2.01345,-3.6791026 2.35069,-4.0332104 0.0359,-0.037695 0.06699,0.7992904 0.06909,1.8599706 0.0042,2.1004344 0.131087,3.0709737 0.593227,4.5359584 1.12993,3.5818947 4.37175,6.6738977 9.054021,8.6355947 1.402193,0.587468 3.458032,1.246058 5.22869,1.675017 4.391504,1.063886 8.325239,2.772693 13.26452,5.762079 2.900836,1.755664 3.610232,2.284005 7.460231,5.55619 2.877252,2.445429 9.179918,7.955883 9.142482,7.993319 -0.01688,0.01688 -1.339559,-0.415177 -2.939278,-0.960134 -1.599718,-0.544957 -2.923714,-0.975489 -2.942214,-0.956736 -0.02693,0.0273 0.276693,3.546221 0.468556,5.430393 l 0.04111,0.403749 -1.312895,0.414745 c -1.215533,0.383993 -1.325816,0.403053 -1.487167,0.257032 -0.151736,-0.137318 -0.534104,-0.157519 -2.95652,-0.156196 l -2.782247,0.0016 -1.223664,1.499706 -1.223666,1.499706 -0.555448,-0.424402 c -0.305498,-0.233421 -0.594979,-0.4244 -0.643292,-0.4244 -0.04831,0 -1.018738,2.477921 -2.156502,5.50649 -1.137764,3.028569 -2.070725,5.439849 -2.073243,5.358402 z"
       id="path53011" />
  </g>
  <g
     inkscape:groupmode="layer"
     id="layer3"
     inkscape:label="face features"
     style="display:inline">
    <path
       style="fill:none;stroke:#000000;stroke-width:0.264583px;stroke-linecap:butt;stroke-linejoin:miter;stroke-opacity:1"
       d="m 25.304567,68.41616 c 0,0 16.092797,-2.53646 18.499237,-5.29584 2.40643,-2.75939 -11.036358,13.83389 -18.499237,5.29584 z"
       id="path1709"
       sodipodi:nodetypes="csc" />
    <path
       style="fill:none;stroke:#000000;stroke-width:0.264583px;stroke-linecap:butt;stroke-linejoin:miter;stroke-opacity:1"
       d="m 27.017602,69.93581 c 2.241316,-1.03113 8.149182,-0.89667 9.332442,-2.84495 l 1.06546,0.2373 0.53028,-0.91823 0.79119,0.1602 0.5957,-0.57148 c 0,0 1.76573,-0.2689 4.75989,-3.13855"
       id="path3917"
       sodipodi:nodetypes="ccccccc" />
    <path
       style="fill:#d3c2cf;fill-opacity:1;stroke:none;stroke-width:0;stroke-miterlimit:4;stroke-dasharray:none;stroke-opacity:0.0192549"
       d="m 26.447472,58.189237 c -0.01857,-0.01535 -0.04413,-0.05911 -0.05677,-0.09724 -0.13481,-0.406741 -1.399386,-1.622816 -3.447582,-3.31535 l -0.413718,-0.341877 0.137705,-0.04645 c 0.302813,-0.102145 0.454499,-0.122159 0.918853,-0.121233 0.49058,0.0011 0.742566,0.03415 1.270598,0.167262 1.068887,0.269452 2.380975,0.873615 3.478522,1.601719 0.566669,0.375922 1.033314,0.76644 1.19856,1.003025 0.0663,0.09493 0.06234,0.112003 -0.02603,0.112003 -0.109067,0 -0.377264,0.06389 -0.654884,0.156017 -0.254055,0.0843 -0.509492,0.193519 -1.402884,0.599829 -0.577728,0.262744 -0.912064,0.356904 -1.002361,0.2823 z"
       id="path112916" />
    <path
       style="fill:#d3c2cf;fill-opacity:1;stroke:none;stroke-width:0;stroke-miterlimit:4;stroke-dasharray:none;stroke-opacity:0.0192549"
       d="m 22.331619,53.621261 c 0,-0.0046 0.04917,-0.09787 0.101558,-0.192603 0.301022,-0.544354 0.876959,-1.368753 1.666653,-2.385653 l 0.01905,-0.02453 h 0.06355 0.06355 l -0.01598,0.0217 c -0.0088,0.01193 -0.436968,0.595622 -0.9515,1.297077 -0.51453,0.701456 -0.938067,1.278099 -0.941189,1.281428 -0.0031,0.0033 -0.0057,0.0045 -0.0057,0.0026 z"
       id="path112955" />
    <path
       style="fill:#d3c2cf;fill-opacity:1;stroke:none;stroke-width:0;stroke-miterlimit:4;stroke-dasharray:none;stroke-opacity:0.0192549"
       d="m 24.135739,50.995213 c 0.01003,-0.01278 0.04185,-0.05348 0.07071,-0.09043 0.250941,-0.321341 0.539265,-0.681423 0.890897,-1.11262 l 0.03824,-0.04689 0.02222,-5.3e-5 c 0.01222,-2.9e-5 0.02222,5.29e-4 0.02222,0.0011 0,5.3e-4 -0.209844,0.287108 -0.466321,0.636654 l -0.46632,0.635537 h -0.06494 -0.06495 z"
       id="path112994" />
    <path
       style="fill:#d3c2cf;fill-opacity:1;stroke:none;stroke-width:0;stroke-miterlimit:4;stroke-dasharray:none;stroke-opacity:0.0192549"
       d="m 25.13811,49.742578 c 0.0011,-0.0013 0.04944,-0.06034 0.107429,-0.130937 0.168516,-0.205155 0.280329,-0.339881 0.281281,-0.338929 5.29e-4,5.29e-4 -0.07697,0.106987 -0.172119,0.236667 l -0.173003,0.235781 h -0.02281 c -0.01791,0 -0.02236,-5.29e-4 -0.0208,-0.0026 z"
       id="path113033" />
    <path
       style="fill:#eee3ec;fill-opacity:1;stroke:none;stroke-width:0;stroke-miterlimit:4;stroke-dasharray:none;stroke-opacity:0.0192549"
       d="m 29.971463,70.712154 c -0.816443,-0.07986 -1.514671,-0.265417 -2.192284,-0.582608 -0.196205,-0.09184 -0.345009,-0.178712 -0.330679,-0.193042 0.04731,-0.04731 0.822632,-0.256083 1.33817,-0.360331 0.278738,-0.05636 1.169225,-0.21273 1.978858,-0.34748 1.655847,-0.27559 2.2792,-0.394481 2.937544,-0.560271 1.295694,-0.326295 2.07559,-0.699265 2.568782,-1.228463 l 0.165364,-0.17744 0.509797,0.115199 c 0.280387,0.06336 0.519033,0.115197 0.530325,0.115197 0.0113,0 0.138621,-0.205705 0.282959,-0.457123 l 0.26243,-0.457123 0.377176,0.07663 0.37718,0.07663 0.318484,-0.29364 c 0.301813,-0.278273 0.33492,-0.299114 0.632539,-0.398185 0.379355,-0.126278 0.995564,-0.419343 1.41904,-0.674889 0.171178,-0.103296 0.315513,-0.183533 0.320741,-0.178305 0.0052,0.0052 -0.164589,0.160414 -0.377378,0.344855 -3.615285,3.133638 -6.987508,4.903899 -9.845741,5.168554 -0.339576,0.03144 -1.009205,0.03767 -1.273307,0.01183 z"
       id="path124072" />
    <path
       style="fill:url(#linearGradient125364);fill-opacity:1;stroke:none;stroke-width:0;stroke-miterlimit:4;stroke-dasharray:none;stroke-opacity:0.0192549"
       d="m 30.087218,70.714331 c -0.918488,-0.08547 -1.675114,-0.286046 -2.384515,-0.632132 -0.133508,-0.06513 -0.235487,-0.13017 -0.226615,-0.144526 0.01725,-0.0279 0.175191,-0.07626 0.676365,-0.207126 0.408035,-0.106543 0.985774,-0.219959 1.967838,-0.386308 2.374408,-0.402196 2.847467,-0.491371 3.599373,-0.678516 1.228048,-0.305654 2.038961,-0.6892 2.520418,-1.192104 l 0.19974,-0.20864 0.508494,0.113967 c 0.279673,0.06268 0.517512,0.113969 0.528532,0.113969 0.01103,0 0.137128,-0.200919 0.280244,-0.446484 0.168431,-0.28901 0.27954,-0.446484 0.315024,-0.446484 0.03015,0 0.200123,0.03081 0.377719,0.06846 l 0.322905,0.06846 0.248341,-0.22556 c 0.347123,-0.315277 0.413009,-0.355907 0.840893,-0.518551 0.396481,-0.15071 0.851361,-0.368531 1.232816,-0.590339 0.12419,-0.07221 0.232775,-0.124325 0.241297,-0.115803 0.0085,0.0085 -0.174945,0.17884 -0.407702,0.378482 -3.334792,2.860328 -6.516584,4.577479 -9.204057,4.967255 -0.425355,0.06169 -1.354889,0.108236 -1.63711,0.08198 z"
       id="path124666" />
    <path
       style="fill:url(#linearGradient125362);fill-opacity:1;stroke:none;stroke-width:0;stroke-miterlimit:4;stroke-dasharray:none;stroke-opacity:0.0192549"
       d="m 26.986254,69.707062 c -0.122079,-0.07713 -0.342815,-0.236826 -0.52052,-0.376571 -0.344085,-0.270578 -0.903613,-0.804018 -0.85889,-0.818843 0.0131,-0.0043 0.209833,-0.03844 0.43721,-0.07578 0.917427,-0.150659 2.461551,-0.430773 3.695899,-0.670454 5.364027,-1.041575 9.55748,-2.154915 11.897701,-3.158778 0.141996,-0.06091 0.261683,-0.107244 0.26597,-0.102958 0.01556,0.01556 -0.550014,0.396727 -0.894075,0.602557 -0.586208,0.350689 -1.222211,0.638829 -1.619745,0.733819 -0.145304,0.03472 -0.102317,7.94e-4 -0.538789,0.425191 l -0.157623,0.15326 -0.409808,-0.08461 c -0.225396,-0.04654 -0.411726,-0.08199 -0.41407,-0.07878 -0.0024,0.0032 -0.114062,0.196813 -0.248267,0.430234 -0.134202,0.23342 -0.253217,0.436996 -0.264475,0.452392 -0.01892,0.02588 -0.06048,0.01908 -0.547269,-0.08945 -0.289743,-0.06459 -0.528177,-0.115621 -0.52986,-0.113396 -0.0016,0.0021 -0.03915,0.05931 -0.08326,0.126858 -0.304044,0.465584 -0.989132,0.865661 -2.008281,1.172792 -0.822957,0.248007 -1.529595,0.389408 -3.852841,0.770969 -1.08563,0.1783 -1.516737,0.258212 -2.00918,0.37243 -0.519723,0.120547 -0.92116,0.241287 -1.232344,0.37065 -0.01453,0.006 -0.06002,-0.01154 -0.107487,-0.04153 z"
       id="path124705" />
    <path
       style="fill:#f0892a;fill-opacity:1;stroke:none;stroke-width:0;stroke-miterlimit:4;stroke-dasharray:none;stroke-opacity:0.0192549"
       d="m 19.041552,55.937939 c -1.31305,-0.218328 -3.017851,-1.500727 -4.562205,-3.43182 -0.645705,-0.807408 -1.069729,-1.547963 -1.69319,-2.957163 -1.305081,-2.94985 -2.441438,-6.683621 -2.250237,-7.393686 0.103347,-0.383802 0.612045,-0.605348 1.625077,-0.707747 0.24058,-0.02432 1.117922,-0.08191 1.949648,-0.127979 1.633884,-0.0905 2.449848,-0.161878 3.361867,-0.294085 1.301687,-0.18869 2.755567,-0.551664 3.853453,-0.962046 0.557461,-0.208372 1.853358,-0.787712 1.927222,-0.861576 0.02344,-0.02344 -0.150961,-0.385236 -0.447397,-0.928161 -0.649886,-1.19027 -1.60441,-3.109386 -1.955123,-3.930861 -0.512442,-1.200293 -1.387014,-3.159302 -1.881373,-4.214207 -0.59442,-1.268428 -1.952312,-3.972973 -2.512991,-5.005178 -0.227833,-0.419439 -0.401423,-0.756875 -0.385757,-0.749861 0.01566,0.007 0.581221,0.407868 1.256792,0.890781 1.705766,1.219319 3.556518,2.499314 5.54001,3.831513 8.133638,5.462905 14.195607,8.787945 17.580078,9.642821 0.263493,0.06656 0.994605,0.206941 1.624697,0.311965 0.630092,0.105026 2.186054,0.376912 3.457694,0.604195 1.271641,0.227279 2.822329,0.498395 3.445976,0.602477 4.505322,0.751912 7.684958,1.002959 11.324677,0.894136 1.819886,-0.05441 2.053082,-0.0407 2.207361,0.129772 0.367816,0.406432 -1.164805,1.854259 -3.768209,3.559739 -4.753338,3.113889 -11.952994,6.498196 -17.198232,8.084288 -2.922291,0.883661 -5.124473,1.266624 -6.9847,1.214649 -0.842542,-0.02355 -1.318414,-0.09052 -1.852563,-0.260763 l -0.317709,-0.101258 -0.621911,-0.948325 c -1.818036,-2.772254 -2.199158,-3.358941 -3.050365,-4.695658 -0.657058,-1.031828 -0.915186,-1.470599 -0.885904,-1.505882 0.02913,-0.0351 0.0081,-0.07595 -0.07144,-0.138485 -0.06202,-0.04878 -0.126232,-0.0835 -0.142695,-0.07716 -0.03489,0.01344 -0.817348,0.907138 -1.578485,1.802874 -1.999695,2.353318 -3.50248,4.356327 -3.953777,5.269857 -0.185555,0.375605 -0.263279,0.744805 -0.178343,0.847145 0.03772,0.04546 -0.04467,0.149739 -0.403799,0.511064 -0.721521,0.72594 -1.081707,0.965928 -1.621324,1.080281 -0.311873,0.06609 -0.505648,0.06941 -0.836822,0.01434 z"
       id="path87316" />
    <path
       style="fill:#f5d131;fill-opacity:1;stroke:none;stroke-width:0;stroke-miterlimit:4;stroke-dasharray:none;stroke-opacity:0.0192549"
       d="m 76.890061,87.806654 4.606373,-7.024961 1.13395,0.743549 1.13395,0.743548 -4.606372,7.024961 -4.606373,7.024961 -1.133949,-0.743548 -1.133951,-0.743549 z"
       id="path136027"
       mask="url(#mask137312)"
       transform="translate(-66.866036,-44.955)" />
    <path
       style="fill:#f5d131;fill-opacity:1;stroke:none;stroke-width:0;stroke-miterlimit:4;stroke-dasharray:none;stroke-opacity:0.0192549"
       d="m 79.366536,90.181947 5.023486,-7.66108 0.41486,0.27203 0.41486,0.272031 -5.023485,7.661079 -5.023485,7.66108 -0.414861,-0.27203 -0.41486,-0.27203 z"
       id="path136066"
       mask="url(#mask137308)"
       transform="translate(-66.866036,-44.955)" />
    <path
       style="fill:#f5d131;fill-opacity:1;stroke:none;stroke-width:0;stroke-miterlimit:4;stroke-dasharray:none;stroke-opacity:0.0192549"
       d="m 74.773218,100.52439 c -0.007,-0.0336 2.70216,-4.201358 6.020321,-9.261728 l 6.033017,-9.200671 1.507326,0.988374 1.507324,0.988375 -6.071356,9.228264 -6.071359,9.228266 -1.456297,-0.95491 c -0.800963,-0.52521 -1.462035,-0.98236 -1.468991,-1.01598 z"
       id="path136105"
       mask="url(#mask137304)"
       transform="translate(-66.866036,-44.955)" />
    <path
       style="display:inline;fill:#f5d131;fill-opacity:1;stroke:none;stroke-width:0;stroke-miterlimit:4;stroke-dasharray:none;stroke-opacity:0.0192549"
       d="m 99.4947,87.571091 4.60638,-7.024961 1.13395,0.743549 1.13395,0.743548 -4.60638,7.024961 -4.606372,7.024964 -1.133949,-0.74355 -1.133951,-0.74355 z"
       id="path136027-3"
       mask="url(#mask137300)"
       transform="translate(-66.866036,-44.955)" />
    <path
       style="display:inline;fill:#f5d131;fill-opacity:1;stroke:none;stroke-width:0;stroke-miterlimit:4;stroke-dasharray:none;stroke-opacity:0.0192549"
       d="m 101.97118,89.946384 5.02348,-7.66108 0.41486,0.27203 0.41486,0.272031 -5.02348,7.661079 -5.023489,7.661078 -0.414861,-0.27203 -0.41486,-0.27203 z"
       id="path136066-5"
       mask="url(#mask137296)"
       transform="translate(-66.866036,-44.955)" />
    <path
       style="display:inline;fill:#f5d131;fill-opacity:1;stroke:none;stroke-width:0;stroke-miterlimit:4;stroke-dasharray:none;stroke-opacity:0.0192549"
       d="m 97.377857,100.28882 c -0.007,-0.0336 2.702163,-4.201348 6.020323,-9.261721 l 6.03302,-9.200671 1.50732,0.988374 1.50733,0.988375 -6.07136,9.228264 -6.07136,9.228259 -1.456297,-0.95491 c -0.800963,-0.52521 -1.462035,-0.98236 -1.468991,-1.01598 z"
       id="path136105-6"
       mask="url(#mask137292)"
       transform="translate(-66.866036,-44.955)" />
  </g>
  <g
     inkscape:groupmode="layer"
     id="layer4"
     inkscape:label="collar top"
     style="display:inline">
    <path
       style="fill:none;stroke:none;stroke-width:0.264583px;stroke-linecap:butt;stroke-linejoin:miter;stroke-opacity:1"
       d="m 43.660164,69.57348 c 0,0 8.6611,-1.68526 16.15164,-4.31986 7.49055,-2.63459 13.63149,-4.83353 13.63149,-5.47712 0,-0.6436 -5.14446,26.35365 -6.80707,29.27663 -1.66261,2.92298 -19.76072,13.85694 -19.76072,13.85694 0,0 -0.0197,-24.34145 -3.21534,-33.33659 z"
       id="path4811" />
    <path
       style="fill:#1a0000;fill-opacity:1;stroke:none;stroke-width:0;stroke-miterlimit:4;stroke-dasharray:none;stroke-opacity:0.0192549"
       d="m 47.007076,99.535543 c -0.0019,-5.11835 -0.523205,-14.301284 -1.102021,-19.414203 -0.344369,-3.041949 -1.011889,-6.956938 -1.493348,-8.758444 -0.222684,-0.833231 -0.374841,-1.563573 -0.338124,-1.62298 0.03672,-0.05941 0.407119,-0.159052 0.823118,-0.221435 1.277774,-0.191614 8.633881,-2.051582 11.039488,-2.791296 4.245362,-1.305436 12.680768,-4.326102 15.520945,-5.557954 1.08889,-0.472279 1.492806,-0.583317 1.492806,-0.410385 0,0.711213 -3.933248,19.028045 -4.989756,23.236912 -0.998119,3.976264 -1.310844,4.760714 -2.306002,5.784477 -1.203688,1.238284 -4.21598,3.48675 -8.345086,6.229027 -3.616301,2.401705 -10.00276,6.432098 -10.192138,6.432098 -0.05983,0 -0.109273,-1.30762 -0.109882,-2.905817 z"
       id="path58706" />
  </g>
</svg>
